<?xml version="1.0" encoding="iso-8859-1"?>
<!-- Uploaded to: SVG Repo, www.svgrepo.com, Generator: SVG Repo Mixer Tools -->
<svg height="800px" width="800px" version="1.1" id="Layer_1" xmlns="http://www.w3.org/2000/svg" xmlns:xlink="http://www.w3.org/1999/xlink" 
	 viewBox="0 0 511.999 511.999" xml:space="preserve">
<g>
	<circle style="fill:#90C8EC;" cx="49.637" cy="97.921" r="41.588"/>
	<circle style="fill:#90C8EC;" cx="257.506" cy="129.096" r="41.586"/>
	<path style="fill:#90C8EC;" d="M503.954,263.005c0,22.967-18.619,41.586-41.587,41.586s-41.589-18.618-41.589-41.586
		c0-22.97,18.62-41.589,41.589-41.589C485.335,221.416,503.954,240.035,503.954,263.005z"/>
	<circle style="fill:#90C8EC;" cx="286.116" cy="414.075" r="41.588"/>
</g>
<g style="opacity:0.2;">
	<path style="fill:#231F20;" d="M32.771,97.922c0-18.663,12.294-34.454,29.224-39.718c-3.906-1.214-8.059-1.869-12.363-1.869
		C26.665,56.337,8.046,74.954,8.046,97.922c0,22.969,18.619,41.588,41.587,41.588c4.305,0,8.458-0.654,12.363-1.869
		C45.065,132.377,32.771,116.586,32.771,97.922z"/>
</g>
<g style="opacity:0.2;">
	<path style="fill:#231F20;" d="M240.643,129.098c0-18.663,12.294-34.454,29.223-39.718c-3.906-1.214-8.059-1.869-12.362-1.869
		c-22.966,0-41.586,18.618-41.586,41.587c0,22.968,18.619,41.587,41.586,41.587c4.305,0,8.458-0.654,12.362-1.869
		C252.937,163.552,240.643,147.761,240.643,129.098z"/>
</g>
<g style="opacity:0.2;">
	<path style="fill:#231F20;" d="M445.505,263.005c0-18.665,12.294-34.456,29.225-39.72c-3.906-1.214-8.057-1.869-12.361-1.869
		c-22.968,0-41.589,18.618-41.589,41.589c0,22.967,18.62,41.586,41.589,41.586c4.305,0,8.457-0.653,12.361-1.869
		C457.799,297.458,445.505,281.668,445.505,263.005z"/>
</g>
<g style="opacity:0.2;">
	<path style="fill:#231F20;" d="M269.253,414.078c0-18.664,12.295-34.456,29.225-39.72c-3.906-1.214-8.057-1.868-12.361-1.868
		c-22.968,0-41.588,18.619-41.588,41.589c0,22.968,18.62,41.586,41.588,41.586c4.305,0,8.457-0.653,12.361-1.868
		C281.548,448.531,269.253,432.742,269.253,414.078z"/>
</g>
<g>
	<path style="fill:#FFD960;" d="M112.613,253.422c-0.336-1.032-1.227-1.784-2.3-1.94l-25.296-3.675l-11.312-22.92
		c-0.478-0.972-1.47-1.588-2.554-1.588s-2.075,0.616-2.554,1.588l-11.313,22.92l-25.294,3.676c-1.072,0.156-1.966,0.908-2.301,1.94
		c-0.334,1.031-0.055,2.163,0.723,2.919l18.303,17.842l-4.321,25.191c-0.182,1.07,0.256,2.149,1.134,2.789
		c0.875,0.637,2.04,0.72,3.001,0.216l22.623-11.894l22.623,11.894c0.417,0.219,0.872,0.326,1.325,0.326
		c0.59,0,1.18-0.181,1.677-0.542c0.875-0.64,1.315-1.719,1.134-2.789l-4.322-25.191l18.303-17.842
		C112.667,255.585,112.948,254.453,112.613,253.422z"/>
	<circle style="fill:#FFD960;" cx="411.018" cy="414.075" r="24.888"/>
</g>
<g>
	<path style="fill:#231F20;" d="M111.47,243.522l-21.11-3.068l-9.437-19.121c-1.847-3.75-5.591-6.079-9.772-6.079
		c-4.177,0-7.92,2.327-9.77,6.073l-9.441,19.127l-21.103,3.067c-4.078,0.59-7.534,3.504-8.804,7.428
		c-1.283,3.972-0.223,8.248,2.762,11.154l15.274,14.89l-3.608,21.03c-0.699,4.105,0.957,8.182,4.333,10.647
		c1.872,1.361,4.088,2.081,6.405,2.081c1.759,0,3.51-0.431,5.072-1.251l18.88-9.925l18.883,9.927
		c1.554,0.816,3.306,1.248,5.066,1.248c2.317,0,4.531-0.718,6.424-2.092c3.359-2.454,5.013-6.527,4.315-10.645l-3.607-21.022
		l15.269-14.885c2.997-2.917,4.056-7.198,2.761-11.177C118.967,246.957,115.596,244.118,111.47,243.522z M87.971,268.423
		c-1.897,1.848-2.761,4.511-2.313,7.122l2.541,14.814l-13.303-6.993c-1.173-0.616-2.458-0.924-3.744-0.924s-2.572,0.308-3.744,0.924
		l-13.302,6.993l2.54-14.814c0.448-2.61-0.417-5.274-2.313-7.122l-10.762-10.492l14.872-2.162c2.62-0.381,4.885-2.026,6.058-4.4
		l6.652-13.477l6.651,13.477c1.173,2.374,3.437,4.021,6.057,4.402l14.873,2.162L87.971,268.423z"/>
	<path style="fill:#231F20;" d="M411.024,381.139c-18.163,0-32.939,14.776-32.939,32.939c0,18.162,14.776,32.937,32.939,32.937
		c18.162,0,32.937-14.775,32.937-32.937C443.961,395.916,429.185,381.139,411.024,381.139z M411.024,430.923
		c-9.29,0-16.848-7.557-16.848-16.846c0-9.29,7.558-16.848,16.848-16.848c9.289,0,16.846,7.558,16.846,16.848
		C427.87,423.367,420.313,430.923,411.024,430.923z"/>
	<circle style="fill:#231F20;" cx="393.639" cy="87.515" r="17.384"/>
	<path style="fill:#231F20;" d="M462.369,213.371c-14.459,0-27.491,6.218-36.57,16.117l-122.911-80.337
		c2.723-6.137,4.247-12.918,4.247-20.053c0-27.367-22.265-49.632-49.632-49.632c-22.059,0-40.794,14.469-47.235,34.413
		L99.249,97.228c-0.374-27.046-22.482-48.937-49.616-48.937C22.265,48.291,0,70.556,0,97.922c0,27.368,22.265,49.633,49.632,49.633
		c22.059,0,40.795-14.469,47.237-34.413l111.021,16.65c0.344,24.859,19.049,45.347,43.141,48.501l3.358,29.344
		c0.47,4.104,3.95,7.132,7.982,7.132c0.306,0,0.615-0.017,0.925-0.053c4.414-0.505,7.583-4.493,7.079-8.908l-3.208-28.032
		c10.547-2.091,19.902-7.531,26.904-15.165l122.911,80.338c-2.723,6.137-4.248,12.92-4.248,20.055
		c0,9.424,2.641,18.242,7.221,25.755l-101.912,87.355c-8.06-6.788-18.296-11.068-29.502-11.609l-15.146-132.33
		c-0.505-4.415-4.511-7.583-8.908-7.078c-4.414,0.505-7.584,4.494-7.079,8.908l15.147,132.337
		c-20.794,5.917-36.073,25.069-36.073,47.735c0,27.367,22.266,49.631,49.633,49.631c27.368,0,49.633-22.264,49.633-49.631
		c0-9.424-2.641-18.243-7.222-25.757l101.913-87.355c8.637,7.275,19.776,11.671,31.926,11.671c27.367,0,49.632-22.264,49.632-49.631
		C512,235.637,489.735,213.371,462.369,213.371z M49.632,131.464c-18.495,0-33.541-15.047-33.541-33.542
		c0-18.494,15.045-33.541,33.541-33.541s33.543,15.047,33.543,33.541C83.174,116.418,68.128,131.464,49.632,131.464z
		 M257.503,162.638c-18.493,0-33.54-15.047-33.54-33.541s15.045-33.541,33.54-33.541c18.494,0,33.541,15.047,33.541,33.541
		C291.044,147.592,275.998,162.638,257.503,162.638z M286.117,447.618c-18.495,0-33.543-15.045-33.543-33.54
		c0-18.495,15.047-33.542,33.543-33.542c18.494,0,33.542,15.047,33.542,33.542C319.658,432.571,304.612,447.618,286.117,447.618z
		 M462.369,296.545c-18.495,0-33.543-15.045-33.543-33.54c0-18.495,15.047-33.543,33.543-33.543
		c18.494,0,33.541,15.047,33.541,33.543C495.909,281.498,480.863,296.545,462.369,296.545z"/>
</g>
</svg>